# xmcd
#
# Track frame offsets: 
#        150
#        13243
#        26400
#        36234
#        49585
#        60877
#        69729
#        76591
#        87920
#        96295
#        107686
#        118967
#        131769
#        138983
#        149797
#        159749
#        169287
#        181645
#        191106
#
# Disc length: 2706 seconds
#
# Revision: 0
# Processed by: cddbd v1.5.2PL0 Copyright (c) Steve Scherf et al.
# Submitted via: ExactAudioCopy v0.95b3
#
DISCID=0b0a9013
DTITLE=Various Artist - Cut Chemist Presents Lost And Found: Rockabilly And J
DTITLE=ump Blues
DYEAR=2007
DGENRE=Rock and Roll
TTITLE0=Jesse Powel Orchestra - The Walkin' Blues (Walk Right In, Walk
TTITLE0=Right Out)
TTITLE1=Little Junior's Blue Flames - Feeling Good
TTITLE2=McKinley Mitchell - Rock Everybody Rock
TTITLE3=John Fred and The Playboys - Boogie Children
TTITLE4=Arsen Roulette - Lovin' On My Mind
TTITLE5=Link Wray and The Wraymen - Run Chicken Run
TTITLE6=The Phantom - Love Me
TTITLE7=Johnny Clark and The Four Playboys - Jungle Stomp
TTITLE8=The Recalls - Nobody's Guy
TTITLE9=Ric Cartey - Scratching On My Screen
TTITLE10=Johnny Burnette - Rock Billy Boogie
TTITLE11=Kick 'Em Jenny - Stressed Up
TTITLE12=The Night Raiders - Cottonpickin'
TTITLE13=Junior Dean And The Avalons - Chick Chick
TTITLE14=Johnny Powers With The Band Of Stan Getz and Tom Cats - Long Bl
TTITLE14=ond Hair, Red Rose Lips
TTITLE15=Wayne Walker - All I Can Do Is Cry
TTITLE16=Charlie Feathers - Bottle To The Baby
TTITLE17=Flea Bops - Good Time Woman
TTITLE18=The Planet Rockers - Batteroo
EXTD=
EXTT0=
EXTT1=
EXTT2=
EXTT3=
EXTT4=
EXTT5=
EXTT6=
EXTT7=
EXTT8=
EXTT9=
EXTT10=
EXTT11=
EXTT12=
EXTT13=
EXTT14=
EXTT15=
EXTT16=
EXTT17=
EXTT18=
PLAYORDER=
